<svg
  width="15"
  height="12"
  viewBox="0 0 15 12"
  fill="none"
  xmlns="http://www.w3.org/2000/svg"
>
  <path
    d="M1.12502 0H13.875C14.0629 0 14.2431 0.0702379 14.3759 0.195262C14.5087 0.320286 14.5834 0.489856 14.5834 0.666667V11.3333C14.5834 11.5101 14.5087 11.6797 14.3759 11.8047C14.2431 11.9298 14.0629 12 13.875 12H1.12502C0.937159 12 0.756991 11.9298 0.624153 11.8047C0.491315 11.6797 0.416687 11.5101 0.416687 11.3333V0.666667C0.416687 0.489856 0.491315 0.320286 0.624153 0.195262C0.756991 0.0702379 0.937159 0 1.12502 0ZM13.1667 2.82533L7.55102 7.55867L1.83335 2.81067V10.6667H13.1667V2.82533ZM2.19531 1.33333L7.54323 5.77467L12.8139 1.33333H2.19531Z"
    fill="#EE748F"
  />
</svg>
